<svg xmlns="http://www.w3.org/2000/svg" xmlns:xlink="http://www.w3.org/1999/xlink" width="290" height="497" viewBox="0 0 290 497">
  <defs>
    <clipPath id="clip-path">
      <rect id="Rectangle_219" data-name="Rectangle 219" width="290" height="497" transform="translate(1076 859)" fill="#fff" stroke="#707070" stroke-width="1"/>
    </clipPath>
  </defs>
  <g id="Mask_Group_56" data-name="Mask Group 56" transform="translate(-1076 -859)" clip-path="url(#clip-path)">
    <g id="Group_174474" data-name="Group 174474">
      <g id="Polygon_1" data-name="Polygon 1" transform="matrix(0.174, -0.985, 0.985, 0.174, 1094.933, 1293.497)" fill="none" opacity="0.11">
        <path d="M267.5,0,535,330.033H0Z" stroke="none"/>
        <path d="M 267.5 31.76275634765625 L 41.95498657226562 310.0332641601562 L 493.0450134277344 310.0332641601562 L 267.5 31.76275634765625 M 267.5 -3.0517578125e-05 L 535 330.0332641601562 L 0 330.0332641601562 L 267.5 -3.0517578125e-05 Z" stroke="none" fill="#fff"/>
      </g>
      <g id="Polygon_2" data-name="Polygon 2" transform="matrix(0.174, -0.985, 0.985, 0.174, 1010.949, 1378.2)" fill="none" opacity="0.14">
        <path d="M365.5,0,731,452.033H0Z" stroke="none"/>
        <path d="M 365.5 31.80908203125 L 41.8912353515625 432.0332946777344 L 689.1087646484375 432.0332946777344 L 365.5 31.80908203125 M 365.5 -3.0517578125e-05 L 731 452.0332946777344 L 0 452.0332946777344 L 365.5 -3.0517578125e-05 Z" stroke="none" fill="#fff"/>
      </g>
    </g>
  </g>
</svg>
