<svg xmlns="http://www.w3.org/2000/svg" width="22.717" height="17.988" viewBox="0 0 22.717 17.988">
  <g id="Group_174444" data-name="Group 174444" transform="translate(0 -5)">
    <g id="Open_Folder" data-name="Open Folder" transform="translate(0 5)">
      <path id="Path_67398" data-name="Path 67398" d="M23.6,17.729A1.414,1.414,0,0,0,22.355,17H8.9a2.1,2.1,0,0,0-2.013,1.51L4.222,27.641A2.314,2.314,0,0,1,2,29.308H18.922a2.315,2.315,0,0,0,2.222-1.666L23.7,18.875a1.486,1.486,0,0,0-.106-1.146Z" transform="translate(-1.053 -11.319)"/>
      <path id="Path_67399" data-name="Path 67399" d="M2.258,21.057l2.665-9.131A3.053,3.053,0,0,1,7.844,9.734H19.882V9.26a1.893,1.893,0,0,0-1.893-1.893H10.772a.949.949,0,0,1-.737-.35L9.1,5.872A2.364,2.364,0,0,0,7.271,5H1.893A1.893,1.893,0,0,0,0,6.893v14.2a.947.947,0,0,0,.947.947,1.37,1.37,0,0,0,1.311-.985Z" transform="translate(0 -5)"/>
    </g>
  </g>
</svg>
